<?xml version="1.0" encoding="UTF-8" standalone="no"?>
<!DOCTYPE svg PUBLIC "-//W3C//DTD SVG 1.1//EN"
 "http://www.w3.org/Graphics/SVG/1.1/DTD/svg11.dtd">
<!-- Generated by graphviz version 2.38.0 (20140413.2041)
 -->
<!-- Title: model Pages: 1 -->
<svg width="718pt" height="453pt"
 viewBox="0.00 0.00 717.98 452.60" xmlns="http://www.w3.org/2000/svg" xmlns:xlink="http://www.w3.org/1999/xlink">
<g id="graph0" class="graph" transform="scale(1 1) rotate(0) translate(4 448.595)">
<title>model</title>
<polygon fill="white" stroke="none" points="-4,4 -4,-448.595 713.976,-448.595 713.976,4 -4,4"/>
<!-- IMPURN1 -->
<g id="node1" class="node"><title>IMPURN1</title>
<polygon fill="black" stroke="black" points="77,-120.298 0,-120.298 0,-84.2976 77,-84.2976 77,-120.298"/>
<text text-anchor="middle" x="38.5" y="-98.5976" font-family="Times,serif" font-size="14.00" fill="white">IMPURN1</text>
</g>
<!-- URN -->
<g id="node24" class="node"><title>URN</title>
<ellipse fill="white" stroke="black" cx="142.247" cy="-102.298" rx="29.4969" ry="29.4969"/>
<text text-anchor="middle" x="142.247" y="-98.5976" font-family="Times,serif" font-size="14.00">URN</text>
</g>
<!-- IMPURN1&#45;&gt;URN -->
<g id="edge21" class="edge"><title>IMPURN1&#45;&gt;URN</title>
<path fill="none" stroke="black" d="M77.0979,-102.298C85.377,-102.298 94.1605,-102.298 102.485,-102.298"/>
<polygon fill="black" stroke="black" points="112.711,-102.298 102.711,-106.798 107.711,-102.298 102.711,-102.298 102.711,-102.298 102.711,-102.298 107.711,-102.298 102.71,-97.7977 112.711,-102.298 112.711,-102.298"/>
</g>
<!-- IMPHYD -->
<g id="node2" class="node"><title>IMPHYD</title>
<polygon fill="black" stroke="black" points="74,-181.298 3,-181.298 3,-145.298 74,-145.298 74,-181.298"/>
<text text-anchor="middle" x="38.5" y="-159.598" font-family="Times,serif" font-size="14.00" fill="white">IMPHYD</text>
</g>
<!-- HYD -->
<g id="node21" class="node"><title>HYD</title>
<ellipse fill="white" stroke="black" cx="237.392" cy="-163.298" rx="29.795" ry="29.795"/>
<text text-anchor="middle" x="237.392" y="-159.598" font-family="Times,serif" font-size="14.00">HYD</text>
</g>
<!-- IMPHYD&#45;&gt;HYD -->
<g id="edge25" class="edge"><title>IMPHYD&#45;&gt;HYD</title>
<path fill="none" stroke="black" d="M74.2471,-163.298C108.712,-163.298 161.429,-163.298 197.328,-163.298"/>
<polygon fill="black" stroke="black" points="207.433,-163.298 197.433,-167.798 202.433,-163.298 197.433,-163.298 197.433,-163.298 197.433,-163.298 202.433,-163.298 197.433,-158.798 207.433,-163.298 207.433,-163.298"/>
</g>
<!-- E21 -->
<g id="node3" class="node"><title>E21</title>
<polygon fill="black" stroke="black" points="264.392,-115.298 210.392,-115.298 210.392,-79.2976 264.392,-79.2976 264.392,-115.298"/>
<text text-anchor="middle" x="237.392" y="-93.5976" font-family="Times,serif" font-size="14.00" fill="white">E21</text>
</g>
<!-- ELC -->
<g id="node23" class="node"><title>ELC</title>
<ellipse fill="white" stroke="black" cx="511.182" cy="-209.298" rx="27.0966" ry="27.0966"/>
<text text-anchor="middle" x="511.182" y="-205.598" font-family="Times,serif" font-size="14.00">ELC</text>
</g>
<!-- E21&#45;&gt;ELC -->
<g id="edge28" class="edge"><title>E21&#45;&gt;ELC</title>
<path fill="none" stroke="black" d="M264.461,-103.49C305.016,-113.672 385.081,-135.989 447.885,-167.298 459.081,-172.879 470.631,-180.173 480.7,-187.113"/>
<polygon fill="black" stroke="black" points="489.12,-193.069 478.357,-190.968 485.038,-190.182 480.956,-187.294 480.956,-187.294 480.956,-187.294 485.038,-190.182 483.554,-183.62 489.12,-193.069 489.12,-193.069"/>
</g>
<!-- E31 -->
<g id="node4" class="node"><title>E31</title>
<polygon fill="black" stroke="black" points="357.587,-181.298 303.587,-181.298 303.587,-145.298 357.587,-145.298 357.587,-181.298"/>
<text text-anchor="middle" x="330.587" y="-159.598" font-family="Times,serif" font-size="14.00" fill="white">E31</text>
</g>
<!-- E31&#45;&gt;ELC -->
<g id="edge30" class="edge"><title>E31&#45;&gt;ELC</title>
<path fill="none" stroke="black" d="M357.865,-165.718C381.709,-168.352 417.654,-173.426 447.885,-182.298 457.622,-185.155 467.856,-189.145 477.151,-193.181"/>
<polygon fill="black" stroke="black" points="486.438,-197.359 475.472,-197.36 481.878,-195.308 477.318,-193.256 477.318,-193.256 477.318,-193.256 481.878,-195.308 479.165,-189.152 486.438,-197.359 486.438,-197.359"/>
</g>
<!-- SRE -->
<g id="node5" class="node"><title>SRE</title>
<polygon fill="black" stroke="black" points="264.392,-385.298 210.392,-385.298 210.392,-349.298 264.392,-349.298 264.392,-385.298"/>
<text text-anchor="middle" x="237.392" y="-363.598" font-family="Times,serif" font-size="14.00" fill="white">SRE</text>
</g>
<!-- DSL -->
<g id="node26" class="node"><title>DSL</title>
<ellipse fill="white" stroke="black" cx="330.587" cy="-317.298" rx="27.0966" ry="27.0966"/>
<text text-anchor="middle" x="330.587" y="-313.598" font-family="Times,serif" font-size="14.00">DSL</text>
</g>
<!-- SRE&#45;&gt;DSL -->
<g id="edge29" class="edge"><title>SRE&#45;&gt;DSL</title>
<path fill="none" stroke="black" d="M264.77,-352.836C274.941,-347.259 286.674,-340.826 297.339,-334.978"/>
<polygon fill="black" stroke="black" points="306.37,-330.027 299.765,-338.78 301.986,-332.431 297.602,-334.834 297.602,-334.834 297.602,-334.834 301.986,-332.431 295.438,-330.889 306.37,-330.027 306.37,-330.027"/>
</g>
<!-- GSL -->
<g id="node30" class="node"><title>GSL</title>
<ellipse fill="white" stroke="black" cx="330.587" cy="-417.298" rx="27.0966" ry="27.0966"/>
<text text-anchor="middle" x="330.587" y="-413.598" font-family="Times,serif" font-size="14.00">GSL</text>
</g>
<!-- SRE&#45;&gt;GSL -->
<g id="edge22" class="edge"><title>SRE&#45;&gt;GSL</title>
<path fill="none" stroke="black" d="M264.77,-381.76C274.941,-387.336 286.674,-393.77 297.339,-399.617"/>
<polygon fill="black" stroke="black" points="306.37,-404.568 295.438,-403.707 301.986,-402.164 297.602,-399.761 297.602,-399.761 297.602,-399.761 301.986,-402.164 299.765,-395.815 306.37,-404.568 306.37,-404.568"/>
</g>
<!-- TXG -->
<g id="node6" class="node"><title>TXG</title>
<polygon fill="black" stroke="black" points="538.182,-435.298 484.182,-435.298 484.182,-399.298 538.182,-399.298 538.182,-435.298"/>
<text text-anchor="middle" x="511.182" y="-413.598" font-family="Times,serif" font-size="14.00" fill="white">TXG</text>
</g>
<!-- TX -->
<g id="node22" class="node"><title>TX</title>
<ellipse fill="white" stroke="black" cx="687.228" cy="-363.298" rx="22.9987" ry="22.9987"/>
<text text-anchor="middle" x="687.228" y="-359.598" font-family="Times,serif" font-size="14.00">TX</text>
</g>
<!-- TXG&#45;&gt;TX -->
<g id="edge17" class="edge"><title>TXG&#45;&gt;TX</title>
<path fill="none" stroke="black" d="M538.239,-409.213C569.607,-399.481 622.213,-383.159 655.522,-372.824"/>
<polygon fill="black" stroke="black" points="665.195,-369.823 656.978,-377.084 660.42,-371.305 655.644,-372.787 655.644,-372.787 655.644,-372.787 660.42,-371.305 654.311,-368.489 665.195,-369.823 665.195,-369.823"/>
</g>
<!-- E51 -->
<g id="node7" class="node"><title>E51</title>
<polygon fill="black" stroke="black" points="628.48,-235.298 574.48,-235.298 574.48,-199.298 628.48,-199.298 628.48,-235.298"/>
<text text-anchor="middle" x="601.48" y="-213.598" font-family="Times,serif" font-size="14.00" fill="white">E51</text>
</g>
<!-- E51&#45;&gt;ELC -->
<g id="edge14" class="edge"><title>E51&#45;&gt;ELC</title>
<path fill="none" stroke="black" d="M574.428,-221.156C565.895,-220.912 556.271,-220.174 547.188,-219.089"/>
<polygon fill="black" stroke="black" points="537.249,-217.724 547.768,-214.626 542.202,-218.404 547.156,-219.084 547.156,-219.084 547.156,-219.084 542.202,-218.404 546.543,-223.543 537.249,-217.724 537.249,-217.724"/>
</g>
<!-- TXE -->
<g id="node8" class="node"><title>TXE</title>
<polygon fill="black" stroke="black" points="628.48,-289.298 574.48,-289.298 574.48,-253.298 628.48,-253.298 628.48,-289.298"/>
<text text-anchor="middle" x="601.48" y="-267.598" font-family="Times,serif" font-size="14.00" fill="white">TXE</text>
</g>
<!-- TXE&#45;&gt;TX -->
<g id="edge19" class="edge"><title>TXE&#45;&gt;TX</title>
<path fill="none" stroke="black" d="M619.026,-289.474C631.934,-303.654 649.987,-323.486 664.131,-339.024"/>
<polygon fill="black" stroke="black" points="671.124,-346.705 661.064,-342.34 667.758,-343.008 664.392,-339.31 664.392,-339.31 664.392,-339.31 667.758,-343.008 667.72,-336.281 671.124,-346.705 671.124,-346.705"/>
</g>
<!-- TXD -->
<g id="node9" class="node"><title>TXD</title>
<polygon fill="black" stroke="black" points="538.182,-381.298 484.182,-381.298 484.182,-345.298 538.182,-345.298 538.182,-381.298"/>
<text text-anchor="middle" x="511.182" y="-359.598" font-family="Times,serif" font-size="14.00" fill="white">TXD</text>
</g>
<!-- TXD&#45;&gt;TX -->
<g id="edge20" class="edge"><title>TXD&#45;&gt;TX</title>
<path fill="none" stroke="black" d="M538.239,-363.298C569.215,-363.298 620.901,-363.298 654.265,-363.298"/>
<polygon fill="black" stroke="black" points="664.404,-363.298 654.404,-367.798 659.404,-363.298 654.404,-363.298 654.404,-363.298 654.404,-363.298 659.404,-363.298 654.404,-358.798 664.404,-363.298 664.404,-363.298"/>
</g>
<!-- IMPOIL1 -->
<g id="node10" class="node"><title>IMPOIL1</title>
<polygon fill="black" stroke="black" points="74,-385.298 3,-385.298 3,-349.298 74,-349.298 74,-385.298"/>
<text text-anchor="middle" x="38.5" y="-363.598" font-family="Times,serif" font-size="14.00" fill="white">IMPOIL1</text>
</g>
<!-- OIL -->
<g id="node20" class="node"><title>OIL</title>
<ellipse fill="white" stroke="black" cx="142.247" cy="-367.298" rx="25.1964" ry="25.1964"/>
<text text-anchor="middle" x="142.247" y="-363.598" font-family="Times,serif" font-size="14.00">OIL</text>
</g>
<!-- IMPOIL1&#45;&gt;OIL -->
<g id="edge16" class="edge"><title>IMPOIL1&#45;&gt;OIL</title>
<path fill="none" stroke="black" d="M74.2311,-367.298C84.6799,-367.298 96.1423,-367.298 106.587,-367.298"/>
<polygon fill="black" stroke="black" points="116.616,-367.298 106.616,-371.798 111.616,-367.298 106.616,-367.298 106.616,-367.298 106.616,-367.298 111.616,-367.298 106.616,-362.798 116.616,-367.298 116.616,-367.298"/>
</g>
<!-- E01 -->
<g id="node11" class="node"><title>E01</title>
<polygon fill="black" stroke="black" points="447.885,-227.298 393.885,-227.298 393.885,-191.298 447.885,-191.298 447.885,-227.298"/>
<text text-anchor="middle" x="420.885" y="-205.598" font-family="Times,serif" font-size="14.00" fill="white">E01</text>
</g>
<!-- E01&#45;&gt;ELC -->
<g id="edge33" class="edge"><title>E01&#45;&gt;ELC</title>
<path fill="none" stroke="black" d="M447.899,-209.298C455.928,-209.298 464.925,-209.298 473.531,-209.298"/>
<polygon fill="black" stroke="black" points="483.742,-209.298 473.742,-213.798 478.742,-209.298 473.742,-209.298 473.742,-209.298 473.742,-209.298 478.742,-209.298 473.742,-204.798 483.742,-209.298 483.742,-209.298"/>
</g>
<!-- RL1 -->
<g id="node12" class="node"><title>RL1</title>
<polygon fill="black" stroke="black" points="628.48,-127.298 574.48,-127.298 574.48,-91.2976 628.48,-91.2976 628.48,-127.298"/>
<text text-anchor="middle" x="601.48" y="-105.598" font-family="Times,serif" font-size="14.00" fill="white">RL1</text>
</g>
<!-- RL -->
<g id="node28" class="node"><title>RL</title>
<ellipse fill="white" stroke="black" cx="687.228" cy="-109.298" rx="22.1965" ry="22.1965"/>
<text text-anchor="middle" x="687.228" y="-105.598" font-family="Times,serif" font-size="14.00">RL</text>
</g>
<!-- RL1&#45;&gt;RL -->
<g id="edge31" class="edge"><title>RL1&#45;&gt;RL</title>
<path fill="none" stroke="black" d="M628.519,-109.298C636.848,-109.298 646.158,-109.298 654.828,-109.298"/>
<polygon fill="black" stroke="black" points="664.976,-109.298 654.976,-113.798 659.976,-109.298 654.976,-109.298 654.976,-109.298 654.976,-109.298 659.976,-109.298 654.976,-104.798 664.976,-109.298 664.976,-109.298"/>
</g>
<!-- IMPFEQ -->
<g id="node13" class="node"><title>IMPFEQ</title>
<polygon fill="black" stroke="black" points="72,-45.2976 5,-45.2976 5,-9.29758 72,-9.29758 72,-45.2976"/>
<text text-anchor="middle" x="38.5" y="-23.5976" font-family="Times,serif" font-size="14.00" fill="white">IMPFEQ</text>
</g>
<!-- FEQ -->
<g id="node27" class="node"><title>FEQ</title>
<ellipse fill="white" stroke="black" cx="142.247" cy="-27.2976" rx="27.0966" ry="27.0966"/>
<text text-anchor="middle" x="142.247" y="-23.5976" font-family="Times,serif" font-size="14.00">FEQ</text>
</g>
<!-- IMPFEQ&#45;&gt;FEQ -->
<g id="edge27" class="edge"><title>IMPFEQ&#45;&gt;FEQ</title>
<path fill="none" stroke="black" d="M72.2536,-27.2976C82.5362,-27.2976 93.9548,-27.2976 104.495,-27.2976"/>
<polygon fill="black" stroke="black" points="114.668,-27.2976 104.668,-31.7977 109.668,-27.2976 104.668,-27.2977 104.668,-27.2977 104.668,-27.2977 109.668,-27.2976 104.668,-22.7977 114.668,-27.2976 114.668,-27.2976"/>
</g>
<!-- IMPGSL1 -->
<g id="node14" class="node"><title>IMPGSL1</title>
<polygon fill="black" stroke="black" points="75.5,-439.298 1.5,-439.298 1.5,-403.298 75.5,-403.298 75.5,-439.298"/>
<text text-anchor="middle" x="38.5" y="-417.598" font-family="Times,serif" font-size="14.00" fill="white">IMPGSL1</text>
</g>
<!-- IMPGSL1&#45;&gt;GSL -->
<g id="edge18" class="edge"><title>IMPGSL1&#45;&gt;GSL</title>
<path fill="none" stroke="black" d="M75.6532,-420.799C131.158,-420.034 236.797,-418.577 292.725,-417.806"/>
<polygon fill="black" stroke="black" points="302.892,-417.666 292.955,-422.303 297.893,-417.735 292.893,-417.804 292.893,-417.804 292.893,-417.804 297.893,-417.735 292.831,-413.304 302.892,-417.666 302.892,-417.666"/>
</g>
<!-- RHO -->
<g id="node15" class="node"><title>RHO</title>
<polygon fill="black" stroke="black" points="447.885,-335.298 393.885,-335.298 393.885,-299.298 447.885,-299.298 447.885,-335.298"/>
<text text-anchor="middle" x="420.885" y="-313.598" font-family="Times,serif" font-size="14.00" fill="white">RHO</text>
</g>
<!-- RH -->
<g id="node29" class="node"><title>RH</title>
<ellipse fill="white" stroke="black" cx="687.228" cy="-236.298" rx="22.9987" ry="22.9987"/>
<text text-anchor="middle" x="687.228" y="-232.598" font-family="Times,serif" font-size="14.00">RH</text>
</g>
<!-- RHO&#45;&gt;RH -->
<g id="edge24" class="edge"><title>RHO&#45;&gt;RH</title>
<path fill="none" stroke="black" d="M447.933,-320.596C488.726,-324.555 569.148,-327.421 628.48,-298.298 644.403,-290.482 658.138,-276.273 668.214,-263.427"/>
<polygon fill="black" stroke="black" points="674.293,-255.264 671.929,-265.972 671.306,-259.274 668.32,-263.285 668.32,-263.285 668.32,-263.285 671.306,-259.274 664.711,-260.597 674.293,-255.264 674.293,-255.264"/>
</g>
<!-- IMPHCO1 -->
<g id="node16" class="node"><title>IMPHCO1</title>
<polygon fill="black" stroke="black" points="77,-258.298 0,-258.298 0,-222.298 77,-222.298 77,-258.298"/>
<text text-anchor="middle" x="38.5" y="-236.598" font-family="Times,serif" font-size="14.00" fill="white">IMPHCO1</text>
</g>
<!-- HCO -->
<g id="node25" class="node"><title>HCO</title>
<ellipse fill="white" stroke="black" cx="237.392" cy="-240.298" rx="29.4969" ry="29.4969"/>
<text text-anchor="middle" x="237.392" y="-236.598" font-family="Times,serif" font-size="14.00">HCO</text>
</g>
<!-- IMPHCO1&#45;&gt;HCO -->
<g id="edge15" class="edge"><title>IMPHCO1&#45;&gt;HCO</title>
<path fill="none" stroke="black" d="M77.4628,-240.298C112.097,-240.298 163.039,-240.298 197.853,-240.298"/>
<polygon fill="black" stroke="black" points="208.104,-240.298 198.104,-244.798 203.104,-240.298 198.104,-240.298 198.104,-240.298 198.104,-240.298 203.104,-240.298 198.104,-235.798 208.104,-240.298 208.104,-240.298"/>
</g>
<!-- E70 -->
<g id="node17" class="node"><title>E70</title>
<polygon fill="black" stroke="black" points="447.885,-281.298 393.885,-281.298 393.885,-245.298 447.885,-245.298 447.885,-281.298"/>
<text text-anchor="middle" x="420.885" y="-259.598" font-family="Times,serif" font-size="14.00" fill="white">E70</text>
</g>
<!-- E70&#45;&gt;ELC -->
<g id="edge26" class="edge"><title>E70&#45;&gt;ELC</title>
<path fill="none" stroke="black" d="M447.899,-247.388C457.578,-241.469 468.664,-234.689 478.776,-228.505"/>
<polygon fill="black" stroke="black" points="487.35,-223.261 481.167,-232.317 483.085,-225.87 478.819,-228.478 478.819,-228.478 478.819,-228.478 483.085,-225.87 476.471,-224.639 487.35,-223.261 487.35,-223.261"/>
</g>
<!-- RHE -->
<g id="node18" class="node"><title>RHE</title>
<polygon fill="black" stroke="black" points="628.48,-181.298 574.48,-181.298 574.48,-145.298 628.48,-145.298 628.48,-181.298"/>
<text text-anchor="middle" x="601.48" y="-159.598" font-family="Times,serif" font-size="14.00" fill="white">RHE</text>
</g>
<!-- RHE&#45;&gt;RH -->
<g id="edge23" class="edge"><title>RHE&#45;&gt;RH</title>
<path fill="none" stroke="black" d="M623.182,-181.343C634.863,-191.525 649.529,-204.308 661.775,-214.983"/>
<polygon fill="black" stroke="black" points="669.417,-221.644 658.922,-218.466 665.648,-218.359 661.879,-215.073 661.879,-215.073 661.879,-215.073 665.648,-218.359 664.836,-211.681 669.417,-221.644 669.417,-221.644"/>
</g>
<!-- IMPDSL1 -->
<g id="node19" class="node"><title>IMPDSL1</title>
<polygon fill="black" stroke="black" points="75.5,-331.298 1.5,-331.298 1.5,-295.298 75.5,-295.298 75.5,-331.298"/>
<text text-anchor="middle" x="38.5" y="-309.598" font-family="Times,serif" font-size="14.00" fill="white">IMPDSL1</text>
</g>
<!-- IMPDSL1&#45;&gt;DSL -->
<g id="edge32" class="edge"><title>IMPDSL1&#45;&gt;DSL</title>
<path fill="none" stroke="black" d="M75.6532,-313.796C131.158,-314.561 236.797,-316.018 292.725,-316.789"/>
<polygon fill="black" stroke="black" points="302.892,-316.929 292.831,-321.291 297.893,-316.86 292.893,-316.792 292.893,-316.792 292.893,-316.792 297.893,-316.86 292.955,-312.292 302.892,-316.929 302.892,-316.929"/>
</g>
<!-- OIL&#45;&gt;SRE -->
<g id="edge5" class="edge"><title>OIL&#45;&gt;SRE</title>
<path fill="none" stroke="black" d="M167.72,-367.298C177.605,-367.298 189.219,-367.298 200.055,-367.298"/>
<polygon fill="black" stroke="black" points="210.125,-367.298 200.125,-371.798 205.125,-367.298 200.125,-367.298 200.125,-367.298 200.125,-367.298 205.125,-367.298 200.125,-362.798 210.125,-367.298 210.125,-367.298"/>
</g>
<!-- HYD&#45;&gt;E31 -->
<g id="edge1" class="edge"><title>HYD&#45;&gt;E31</title>
<path fill="none" stroke="black" d="M267.498,-163.298C275.725,-163.298 284.779,-163.298 293.37,-163.298"/>
<polygon fill="black" stroke="black" points="303.532,-163.298 293.532,-167.798 298.532,-163.298 293.532,-163.298 293.532,-163.298 293.532,-163.298 298.532,-163.298 293.531,-158.798 303.532,-163.298 303.532,-163.298"/>
</g>
<!-- ELC&#45;&gt;E51 -->
<g id="edge7" class="edge"><title>ELC&#45;&gt;E51</title>
<path fill="none" stroke="black" d="M538.674,-205.453C546.692,-205.696 555.639,-206.37 564.182,-207.355"/>
<polygon fill="black" stroke="black" points="574.311,-208.701 563.805,-211.844 569.354,-208.042 564.398,-207.383 564.398,-207.383 564.398,-207.383 569.354,-208.042 564.991,-202.923 574.311,-208.701 574.311,-208.701"/>
</g>
<!-- ELC&#45;&gt;TXE -->
<g id="edge6" class="edge"><title>ELC&#45;&gt;TXE</title>
<path fill="none" stroke="black" d="M534.009,-224.623C543.76,-231.471 555.484,-239.703 566.352,-247.334"/>
<polygon fill="black" stroke="black" points="574.831,-253.288 564.061,-251.224 570.739,-250.415 566.647,-247.541 566.647,-247.541 566.647,-247.541 570.739,-250.415 569.233,-243.858 574.831,-253.288 574.831,-253.288"/>
</g>
<!-- ELC&#45;&gt;RL1 -->
<g id="edge2" class="edge"><title>ELC&#45;&gt;RL1</title>
<path fill="none" stroke="black" d="M529.313,-188.559C541.649,-173.79 558.812,-153.578 574.48,-136.298 574.89,-135.846 575.304,-135.391 575.723,-134.933"/>
<polygon fill="black" stroke="black" points="582.707,-127.457 579.169,-137.836 579.294,-131.11 575.881,-134.764 575.881,-134.764 575.881,-134.764 579.294,-131.11 572.592,-131.692 582.707,-127.457 582.707,-127.457"/>
</g>
<!-- ELC&#45;&gt;RHE -->
<g id="edge10" class="edge"><title>ELC&#45;&gt;RHE</title>
<path fill="none" stroke="black" d="M535.844,-196.97C544.918,-192.243 555.475,-186.743 565.395,-181.576"/>
<polygon fill="black" stroke="black" points="574.264,-176.955 567.474,-185.566 569.83,-179.265 565.395,-181.575 565.395,-181.575 565.395,-181.575 569.83,-179.265 563.316,-177.585 574.264,-176.955 574.264,-176.955"/>
</g>
<!-- URN&#45;&gt;E21 -->
<g id="edge3" class="edge"><title>URN&#45;&gt;E21</title>
<path fill="none" stroke="black" d="M171.7,-100.77C180.64,-100.29 190.636,-99.7537 200.046,-99.2486"/>
<polygon fill="black" stroke="black" points="210.334,-98.6964 200.59,-103.726 205.341,-98.9644 200.348,-99.2325 200.348,-99.2325 200.348,-99.2325 205.341,-98.9644 200.107,-94.739 210.334,-98.6964 210.334,-98.6964"/>
</g>
<!-- HCO&#45;&gt;E01 -->
<g id="edge8" class="edge"><title>HCO&#45;&gt;E01</title>
<path fill="none" stroke="black" d="M266.353,-235.522C297.802,-230.15 348.984,-221.408 383.519,-215.509"/>
<polygon fill="black" stroke="black" points="393.661,-213.777 384.562,-219.896 388.733,-214.619 383.804,-215.46 383.804,-215.46 383.804,-215.46 388.733,-214.619 383.047,-211.025 393.661,-213.777 393.661,-213.777"/>
</g>
<!-- DSL&#45;&gt;TXD -->
<g id="edge9" class="edge"><title>DSL&#45;&gt;TXD</title>
<path fill="none" stroke="black" d="M355.332,-329.236C366.743,-334.542 380.764,-340.447 393.885,-344.298 420.1,-351.991 450.613,-356.828 473.806,-359.696"/>
<polygon fill="black" stroke="black" points="483.905,-360.878 473.449,-364.185 478.939,-360.296 473.972,-359.715 473.972,-359.715 473.972,-359.715 478.939,-360.296 474.496,-355.246 483.905,-360.878 483.905,-360.878"/>
</g>
<!-- DSL&#45;&gt;RHO -->
<g id="edge13" class="edge"><title>DSL&#45;&gt;RHO</title>
<path fill="none" stroke="black" d="M358.079,-317.298C366.097,-317.298 375.044,-317.298 383.586,-317.298"/>
<polygon fill="black" stroke="black" points="393.715,-317.298 383.715,-321.798 388.715,-317.298 383.715,-317.298 383.715,-317.298 383.715,-317.298 388.715,-317.298 383.715,-312.798 393.715,-317.298 393.715,-317.298"/>
</g>
<!-- DSL&#45;&gt;E70 -->
<g id="edge4" class="edge"><title>DSL&#45;&gt;E70</title>
<path fill="none" stroke="black" d="M354.326,-303.391C363.653,-297.687 374.662,-290.954 384.968,-284.651"/>
<polygon fill="black" stroke="black" points="393.784,-279.26 387.601,-288.316 389.519,-281.868 385.253,-284.477 385.253,-284.477 385.253,-284.477 389.519,-281.868 382.905,-280.638 393.784,-279.26 393.784,-279.26"/>
</g>
<!-- FEQ&#45;&gt;E21 -->
<g id="edge11" class="edge"><title>FEQ&#45;&gt;E21</title>
<path fill="none" stroke="black" d="M164.851,-43.5329C176.489,-52.2795 191.081,-63.2458 204.046,-72.9892"/>
<polygon fill="black" stroke="black" points="212.284,-79.1798 201.586,-76.7694 208.287,-76.1759 204.29,-73.172 204.29,-73.172 204.29,-73.172 208.287,-76.1759 206.993,-69.5746 212.284,-79.1798 212.284,-79.1798"/>
</g>
<!-- GSL&#45;&gt;TXG -->
<g id="edge12" class="edge"><title>GSL&#45;&gt;TXG</title>
<path fill="none" stroke="black" d="M357.939,-417.298C388.628,-417.298 439.497,-417.298 473.904,-417.298"/>
<polygon fill="black" stroke="black" points="484.013,-417.298 474.013,-421.798 479.013,-417.298 474.013,-417.298 474.013,-417.298 474.013,-417.298 479.013,-417.298 474.013,-412.798 484.013,-417.298 484.013,-417.298"/>
</g>
</g>
</svg>
